<svg width="47" height="47" viewBox="0 0 47 47" fill="none" xmlns="http://www.w3.org/2000/svg">
<path d="M27.2358 31.3999C27.2345 32.5487 26.9334 33.6774 26.3623 34.6742C25.7912 35.6711 24.9698 36.5017 23.9794 37.0839C23.6828 37.2316 23.3411 37.2607 23.0238 37.1653C22.7065 37.0699 22.4375 36.8572 22.2715 36.5704C22.1056 36.2837 22.0551 35.9445 22.1304 35.6218C22.2057 35.2992 22.4011 35.0174 22.6768 34.8337C23.274 34.4812 23.7689 33.9791 24.1127 33.3769C24.4566 32.7747 24.6374 32.0933 24.6374 31.3999C24.6374 30.7064 24.4566 30.025 24.1127 29.4228C23.7689 28.8206 23.274 28.3185 22.6768 27.966C22.4011 27.7823 22.2057 27.5005 22.1304 27.1779C22.0551 26.8552 22.1056 26.516 22.2715 26.2293C22.4375 25.9425 22.7065 25.7298 23.0238 25.6344C23.3411 25.5391 23.6828 25.5682 23.9794 25.7158C24.9698 26.298 25.7912 27.1286 26.3623 28.1255C26.9334 29.1224 27.2345 30.251 27.2358 31.3999ZM18.6161 23.0326C18.3781 22.9338 18.1162 22.9079 17.8635 22.958C17.6108 23.0082 17.3786 23.1321 17.1963 23.3142L13.6713 26.8409H10.3026C9.9571 26.8409 9.62579 26.9781 9.38151 27.2224C9.13723 27.4667 9 27.798 9 28.1435V34.6563C9 35.0017 9.13723 35.333 9.38151 35.5773C9.62579 35.8216 9.9571 35.9588 10.3026 35.9588H13.6713L17.1963 39.4855C17.3785 39.6679 17.6107 39.7921 17.8635 39.8424C18.1163 39.8928 18.3784 39.867 18.6165 39.7683C18.8546 39.6696 19.0581 39.5025 19.2013 39.2881C19.3444 39.0737 19.4207 38.8217 19.4205 38.5639V24.2358C19.4204 23.9782 19.344 23.7264 19.2008 23.5122C19.0576 23.298 18.8542 23.1311 18.6161 23.0326ZM37.6563 16.4205V37.2614C37.6563 37.9523 37.3818 38.6149 36.8932 39.1035C36.4047 39.592 35.7421 39.8665 35.0511 39.8665H29.8409C29.4955 39.8665 29.1641 39.7292 28.9199 39.485C28.6756 39.2407 28.5384 38.9094 28.5384 38.5639C28.5384 38.2185 28.6756 37.8872 28.9199 37.6429C29.1641 37.3986 29.4955 37.2614 29.8409 37.2614H35.0511V17.723H27.2358C26.8903 17.723 26.559 17.5858 26.3147 17.3415C26.0705 17.0972 25.9332 16.7659 25.9332 16.4205V8.60511H11.6051V21.6307C11.6051 21.9761 11.4679 22.3075 11.2236 22.5517C10.9793 22.796 10.648 22.9332 10.3026 22.9332C9.9571 22.9332 9.62579 22.796 9.38151 22.5517C9.13723 22.3075 9 21.9761 9 21.6307V8.60511C9 7.91419 9.27447 7.25157 9.76302 6.76302C10.2516 6.27447 10.9142 6 11.6051 6H27.2358C27.4069 5.99987 27.5764 6.03344 27.7345 6.09882C27.8926 6.16419 28.0363 6.26008 28.1574 6.381L37.2753 15.4989C37.3962 15.62 37.4921 15.7636 37.5574 15.9218C37.6228 16.0799 37.6564 16.2494 37.6563 16.4205ZM28.5384 15.1179H33.2096L28.5384 10.4466V15.1179Z" fill="#279AF1"/>
</svg>
