<svg width="42" height="39" viewBox="0 0 42 39" fill="none" xmlns="http://www.w3.org/2000/svg">
<path d="M19.5546 7.96032V15.3366L18.9947 15.6044C18.2482 15.9614 17.5584 16.6512 17.1851 17.4302C16.8119 18.2011 16.6983 18.7204 16.7307 19.5643L16.7632 20.2622L16.1546 20.4894C14.7507 21.0006 13.1765 21.9419 11.9593 22.9968C9.53298 25.0986 7.80455 28.3363 7.42316 31.4767C7.37447 31.923 7.37447 31.9555 7.52054 31.8905C8.50242 31.4767 10.0442 31.2657 11.3344 31.3712C12.7139 31.4848 13.8013 31.8743 15.0591 32.6939L15.7488 33.1483L16.4386 32.6939C18.094 31.6146 19.7332 31.2008 21.7213 31.3712C23.1008 31.4848 24.1881 31.8743 25.4459 32.6939L26.1356 33.1483L26.8254 32.6939C28.0832 31.8743 29.1705 31.4848 30.5582 31.3712C31.8159 31.2657 33.3983 31.4848 34.3639 31.8905C34.51 31.9555 34.51 31.923 34.4613 31.4767C34.0799 28.3363 32.3434 25.0986 29.9252 22.9968C28.708 21.9419 27.1338 21.0006 25.7299 20.4894L25.1213 20.2622L25.1538 19.5643C25.1862 18.7204 25.0726 18.2011 24.6993 17.4302C24.3261 16.6512 23.6363 15.9614 22.8898 15.6044L22.3299 15.3366V12.5127L22.3217 9.69686L22.549 9.74555C22.6707 9.77801 23.117 9.9403 23.5389 10.1188C24.8292 10.6463 25.3729 10.768 26.7848 10.8086C28.3428 10.8573 29.0894 10.7355 30.5176 10.1837C31.9701 9.62383 32.0513 9.6076 33.4226 9.55891L34.6561 9.51022V5.04714V0.584061L33.3415 0.632749C31.751 0.689552 31.1749 0.803158 29.7791 1.33873C28.4483 1.85807 28.0426 1.9311 26.8254 1.89053C25.8029 1.84995 25.7461 1.83372 23.9122 1.13586C23.0196 0.803158 22.3055 0.681437 20.8854 0.632749L19.5627 0.584061L19.5546 7.96032Z" fill="#FF9900"/>
<path d="M0.168945 35.3555V36.6944L0.672056 36.7999C1.05345 36.873 1.36181 37.0109 1.86492 37.3436C3.64203 38.4959 4.85112 38.788 6.48218 38.4553C7.19627 38.3093 7.78053 38.0415 8.81109 37.368C10.1094 36.524 10.9858 36.5159 12.2517 37.3436C14.0288 38.4959 15.2379 38.788 16.869 38.4553C17.5831 38.3093 18.1673 38.0415 19.1979 37.368C20.4963 36.524 21.3726 36.5159 22.6385 37.3436C24.4157 38.4959 25.6247 38.788 27.2558 38.4553C27.9699 38.3093 28.5541 38.0415 29.5847 37.368C30.8831 36.524 31.7594 36.5159 33.0253 37.3436C34.0397 38.0009 34.7051 38.3174 35.4029 38.4553C37.034 38.788 38.2431 38.4959 40.0202 37.3436C40.5233 37.0109 40.8317 36.873 41.2131 36.7999L41.7162 36.6944V35.3555V34.0166L41.1319 34.0653C40.1906 34.1464 39.3548 34.4791 38.4054 35.1527C37.6264 35.7045 37.2612 35.8424 36.5228 35.8424C35.7843 35.8424 35.4192 35.7045 34.632 35.1445C33.4635 34.3087 32.4005 33.9923 31.0129 34.0653C29.8363 34.1221 29.0816 34.398 28.0186 35.1527C27.2396 35.7045 26.8744 35.8424 26.136 35.8424C25.3975 35.8424 25.0324 35.7045 24.2452 35.1445C23.0767 34.3087 22.0137 33.9923 20.6261 34.0653C19.4495 34.1221 18.6948 34.398 17.6318 35.1527C16.8528 35.7045 16.4876 35.8424 15.7492 35.8424C15.0107 35.8424 14.6456 35.7045 13.8665 35.1527C13.2742 34.7388 12.7305 34.4548 12.0975 34.2357C11.4565 34.0166 9.65502 34.0166 9.01396 34.2357C8.38102 34.4548 7.83733 34.7388 7.24496 35.1527C6.46595 35.7045 6.10079 35.8424 5.36235 35.8424C4.62391 35.8424 4.25875 35.7045 3.47974 35.1527C2.53032 34.4791 1.69451 34.1464 0.761318 34.0653L0.168945 34.0166V35.3555Z" fill="#FF9900"/>
</svg>
