<svg width="46" height="46" viewBox="0 0 46 46" fill="none" xmlns="http://www.w3.org/2000/svg">
<path d="M13.9438 32.0697L19.9438 19.3197L32.6938 13.3197L26.6938 26.0697L13.9438 32.0697ZM23.3188 21.0072C22.8713 21.0072 22.4421 21.185 22.1256 21.5014C21.8091 21.8179 21.6313 22.2471 21.6313 22.6947C21.6313 23.1422 21.8091 23.5715 22.1256 23.8879C22.4421 24.2044 22.8713 24.3822 23.3188 24.3822C23.7664 24.3822 24.1956 24.2044 24.5121 23.8879C24.8286 23.5715 25.0063 23.1422 25.0063 22.6947C25.0063 22.2471 24.8286 21.8179 24.5121 21.5014C24.1956 21.185 23.7664 21.0072 23.3188 21.0072ZM23.3188 3.94469C25.7811 3.94469 28.2193 4.42967 30.4942 5.37195C32.769 6.31423 34.836 7.69534 36.5771 9.43644C38.3182 11.1775 39.6993 13.2445 40.6416 15.5194C41.5839 17.7942 42.0688 20.2324 42.0688 22.6947C42.0688 27.6675 40.0934 32.4366 36.5771 35.9529C33.0608 39.4693 28.2917 41.4447 23.3188 41.4447C20.8566 41.4447 18.4184 40.9597 16.1435 40.0174C13.8687 39.0752 11.8017 37.694 10.0606 35.9529C6.54429 32.4366 4.56885 27.6675 4.56885 22.6947C4.56885 17.7219 6.54429 12.9527 10.0606 9.43644C13.5769 5.92013 18.346 3.94469 23.3188 3.94469ZM23.3188 7.69469C19.3406 7.69469 15.5253 9.27504 12.7122 12.0881C9.8992 14.9011 8.31885 18.7164 8.31885 22.6947C8.31885 26.6729 9.8992 30.4882 12.7122 33.3013C15.5253 36.1143 19.3406 37.6947 23.3188 37.6947C27.2971 37.6947 31.1124 36.1143 33.9255 33.3013C36.7385 30.4882 38.3188 26.6729 38.3188 22.6947C38.3188 18.7164 36.7385 14.9011 33.9255 12.0881C31.1124 9.27504 27.2971 7.69469 23.3188 7.69469Z" fill="#F24E1E"/>
</svg>
