<svg width="48" height="49" viewBox="0 0 48 49" fill="none" xmlns="http://www.w3.org/2000/svg">
<path d="M42.6468 8.78106C42.9623 8.44253 43.134 7.99477 43.1259 7.53212C43.1177 7.06947 42.9303 6.62805 42.6031 6.30086C42.2759 5.97366 41.8345 5.78624 41.3718 5.77808C40.9092 5.76992 40.4614 5.94165 40.1229 6.2571L34.2987 12.0789C32.4482 10.8192 30.2162 10.2444 27.9874 10.4535C25.7586 10.6625 23.6725 11.6424 22.0884 13.2242L21.3741 13.9385C21.0444 14.268 20.7828 14.6592 20.6043 15.0899C20.4259 15.5205 20.334 15.9821 20.334 16.4482C20.334 16.9143 20.4259 17.3759 20.6043 17.8065C20.7828 18.2372 21.0444 18.6284 21.3741 18.9579L27.2435 24.8249C28.7955 23.7221 30.5688 22.9702 32.4405 22.6215C34.3122 22.2728 36.2373 22.3357 38.0823 22.8057C38.4979 21.4316 38.6007 19.982 38.3831 18.563C38.1656 17.144 37.6332 15.7917 36.8251 14.6052L42.6468 8.78106ZM18.2977 22.0342L24.1648 27.9037C23.0619 29.4556 22.3101 31.229 21.9614 33.1006C21.6127 34.9723 21.6756 36.8975 22.1456 38.7424C20.7715 39.158 19.3218 39.2608 17.9028 39.0433C16.4839 38.8257 15.1316 38.2934 13.9451 37.4852L8.12093 43.307C7.7824 43.6224 7.33464 43.7941 6.87199 43.786C6.40934 43.7778 5.96793 43.5904 5.64073 43.2632C5.31354 42.936 5.12612 42.4946 5.11795 42.0319C5.10979 41.5693 5.28152 41.1215 5.59697 40.783L11.4211 34.9588C10.1612 33.1085 9.58597 30.8768 9.7946 28.648C10.0032 26.4192 10.9826 24.3329 12.5641 22.7486L13.2784 22.0342C13.6079 21.7045 13.9991 21.4429 14.4297 21.2645C14.8604 21.086 15.3219 20.9941 15.7881 20.9941C16.2542 20.9941 16.7158 21.086 17.1464 21.2645C17.577 21.4429 17.9683 21.7045 18.2977 22.0342ZM40.7896 44.407C39.6195 45.1888 38.3069 45.7324 36.9267 46.0068C35.5465 46.2813 34.1258 46.2812 32.7457 46.0066C31.3656 45.732 30.053 45.1882 28.883 44.4063C27.713 43.6245 26.7085 42.6198 25.9268 41.4497C25.1451 40.2796 24.6014 38.967 24.327 37.5869C24.0526 36.2067 24.0526 34.786 24.3272 33.4058C24.6019 32.0257 25.1456 30.7132 25.9275 29.5432C26.7094 28.3732 27.714 27.3686 28.8841 26.5869C31.2472 25.0081 34.1407 24.4328 36.928 24.9874C39.7153 25.542 42.1681 27.1811 43.7469 29.5442C45.3257 31.9073 45.901 34.8008 45.3464 37.5881C44.7918 40.3754 43.1527 42.8283 40.7896 44.407ZM35.6797 29.8919C35.5132 29.7249 35.3009 29.6112 35.0697 29.5651C34.8385 29.519 34.5988 29.5426 34.3809 29.6328C34.1631 29.7231 33.977 29.8761 33.8463 30.0722C33.7155 30.2684 33.6459 30.499 33.6463 30.7348V34.3064H30.0746C29.7589 34.3064 29.4561 34.4319 29.2328 34.6551C29.0095 34.8784 28.8841 35.1812 28.8841 35.497C28.8841 35.8127 29.0095 36.1155 29.2328 36.3388C29.4561 36.5621 29.7589 36.6875 30.0746 36.6875H33.6463V40.2592C33.6463 40.5749 33.7717 40.8777 33.995 41.101C34.2183 41.3243 34.5211 41.4497 34.8368 41.4497C35.1526 41.4497 35.4554 41.3243 35.6787 41.101C35.902 40.8777 36.0274 40.5749 36.0274 40.2592V36.6875H39.599C39.9148 36.6875 40.2176 36.5621 40.4409 36.3388C40.6642 36.1155 40.7896 35.8127 40.7896 35.497C40.7896 35.1812 40.6642 34.8784 40.4409 34.6551C40.2176 34.4319 39.9148 34.3064 39.599 34.3064H36.0274V30.7348C36.0277 30.5783 35.9971 30.4234 35.9375 30.2787C35.8778 30.1341 35.7902 30.0026 35.6797 29.8919Z" fill="#2E2E2E"/>
</svg>
