<svg width="47" height="47" viewBox="0 0 47 47" fill="none" xmlns="http://www.w3.org/2000/svg">
<path d="M37.3297 13.7758C37.3297 13.7758 37.3297 6.75904 28.5587 6.75904C25.8748 6.75904 23.5593 7.09234 21.5419 7.63614C20.6649 6.86429 14.9813 2.0385 9.26258 7.75893L13.7533 12.2497C6.63129 19.9681 9.26258 33.072 9.26258 33.072C9.26258 33.072 4 33.072 4 40.0887L11.0168 38.3345L18.0336 40.0887C18.0336 33.072 12.771 33.072 12.771 33.072C12.771 33.072 14.262 22.9678 25.0503 21.1084V26.0552C28.5587 26.0552 29.7516 22.8801 30.12 20.7926H33.8213C40.8381 20.7926 42.5923 19.0384 42.5923 17.2842C42.5923 15.53 39.0839 13.7758 37.3297 13.7758ZM33.8213 15.53C32.8565 15.53 32.0671 14.7406 32.0671 13.7758C32.0671 12.811 32.8565 12.0216 33.8213 12.0216C34.7861 12.0216 35.5755 12.811 35.5755 13.7758C35.5755 14.7406 34.7861 15.53 33.8213 15.53Z" fill="#279AF1"/>
</svg>
