<svg width="47" height="47" viewBox="0 0 47 47" fill="none" xmlns="http://www.w3.org/2000/svg">
<path d="M21.4776 21.4776C21.212 21.743 21.0014 22.0581 20.8576 22.405C20.7138 22.7518 20.6398 23.1236 20.6397 23.4991C20.6396 23.8746 20.7135 24.2464 20.8571 24.5933C21.0007 24.9402 21.2112 25.2554 21.4767 25.521C21.7421 25.7868 22.0574 25.9977 22.4044 26.1416C22.7514 26.2855 23.1233 26.3596 23.499 26.3596C23.8746 26.3596 24.2466 26.2856 24.5937 26.1418C24.9407 25.998 25.256 25.7872 25.5215 25.5215C25.7874 25.256 25.9985 24.9408 26.1424 24.5937C26.2864 24.2466 26.3605 23.8746 26.3605 23.4988C26.3605 23.1231 26.2864 22.751 26.1424 22.4039C25.9985 22.0569 25.7874 21.7416 25.5215 21.4762C25.256 21.2105 24.9407 20.9998 24.5938 20.8561C24.2468 20.7124 23.8748 20.6385 23.4993 20.6386C23.1237 20.6387 22.7518 20.7129 22.4049 20.8569C22.058 21.0008 21.7429 21.2117 21.4776 21.4776ZM35.9781 37.2075C43.4849 29.6363 43.467 17.3703 35.9207 9.82393C35.9099 9.81312 35.8972 9.80654 35.8864 9.7962L35.8892 9.79338L35.0921 8.99532L35.0827 9.00472C34.8708 8.83505 34.6045 8.74821 34.3333 8.76041C34.0621 8.7726 33.8046 8.88299 33.6088 9.07099L33.6074 9.06959L33.5952 9.0818L33.5914 9.08509L33.5886 9.08885L32.2853 10.3917L32.2843 10.3926C32.2843 10.3929 32.2842 10.3931 32.284 10.3933C32.2839 10.3935 32.2836 10.3936 32.2834 10.3936L32.1894 10.4876L32.1988 10.497C32.0431 10.6948 31.9589 10.9395 31.9597 11.1913C31.9606 11.443 32.0465 11.6871 32.2035 11.8839L32.1946 11.8929L32.2839 11.9822V11.9826L32.9921 12.69L33.0048 12.6773C33.0152 12.6881 33.0222 12.7008 33.033 12.7116C38.9865 18.6656 39.0053 28.341 33.0904 34.3194L33.0824 34.3114L32.3755 35.0183L32.3741 35.0192L32.3732 35.0206L32.2848 35.109L32.2937 35.1179C32.124 35.3298 32.0372 35.5962 32.0494 35.8674C32.0616 36.1385 32.172 36.396 32.36 36.5918L32.3586 36.5933L32.3732 36.6078L32.3741 36.6092L32.3755 36.6102L33.0316 37.2663L33.0326 37.2677L33.034 37.2686L33.6807 37.9154L33.6816 37.9168L33.683 37.9177L33.7761 38.0108L33.7855 38.0014C33.9834 38.1572 34.2281 38.2415 34.48 38.2407C34.7318 38.24 34.976 38.1541 35.1729 37.9971L35.1819 38.0061L35.9184 37.2691C35.919 37.2684 35.9198 37.2677 35.9207 37.2672L35.9292 37.2583L35.9795 37.208L35.9781 37.2075Z" fill="#279AF1"/>
<path d="M30.5138 31.7438C35.0075 27.1853 34.9896 19.8223 30.456 15.2891C30.4452 15.2783 30.4325 15.2717 30.4217 15.2609L30.425 15.2576L29.6274 14.4596L29.618 14.469C29.406 14.2995 29.1397 14.2128 28.8686 14.2249C28.5974 14.2371 28.34 14.3474 28.1441 14.5352L28.1427 14.5338L28.129 14.5474L28.1267 14.5493L28.1248 14.5517L26.821 15.8555L26.8191 15.8569L26.8177 15.8587L26.7247 15.9518L26.7341 15.9612C26.5783 16.159 26.494 16.4037 26.4948 16.6554C26.4955 16.9072 26.5813 17.1513 26.7383 17.3482L26.7294 17.3571L26.8182 17.4459L26.8191 17.4469L26.8201 17.4478L27.527 18.1552L27.5396 18.1425C27.55 18.1533 27.557 18.166 27.5678 18.1768C30.5091 21.1176 30.5256 25.8881 27.6238 28.8538L27.6177 28.8477L26.9103 29.555L26.9094 29.5555L26.9089 29.5564L26.8201 29.6453L26.829 29.6542C26.6595 29.866 26.5727 30.1323 26.5849 30.4034C26.5971 30.6745 26.7074 30.9319 26.8953 31.1276L26.8934 31.1295L28.2169 32.4526L28.3114 32.547L28.3208 32.5376C28.5187 32.6932 28.7633 32.7775 29.015 32.7767C29.2667 32.7759 29.5108 32.6902 29.7078 32.5334L29.7172 32.5428L30.456 31.804L30.5147 31.7452L30.5138 31.7438Z" fill="#279AF1"/>
<path d="M25.5234 21.479C25.2579 21.2132 24.9426 21.0024 24.5956 20.8586C24.2486 20.7147 23.8767 20.6406 23.501 20.6406C23.1254 20.6406 22.7534 20.7145 22.4064 20.8583C22.0594 21.0021 21.7441 21.2128 21.4785 21.4785C21.2127 21.7439 21.0018 22.0592 20.858 22.4061C20.7141 22.7531 20.64 23.1251 20.64 23.5007C20.64 23.8763 20.7141 24.2483 20.858 24.5953C21.0018 24.9423 21.2127 25.2575 21.4785 25.5229C21.744 25.7887 22.0592 25.9995 22.4062 26.1433C22.7532 26.2872 23.1252 26.3612 23.5008 26.3612C23.8764 26.3611 24.2484 26.287 24.5953 26.1431C24.9423 25.9992 25.2575 25.7883 25.5229 25.5224C26.059 24.9862 26.3603 24.2591 26.3604 23.5008C26.3605 22.7425 26.0594 22.0153 25.5234 21.479Z" fill="#279AF1"/>
<path d="M20.2612 29.6518L20.2701 29.6429L20.1818 29.5545L20.1804 29.5527L20.179 29.5512L19.4726 28.8444L19.4599 28.8571C19.4495 28.8462 19.4425 28.8336 19.4321 28.8232C16.4909 25.882 16.4744 21.1115 19.3762 18.1458L19.3823 18.1519L20.1799 17.3547L20.1705 17.3453C20.34 17.1335 20.4268 16.8672 20.4146 16.5961C20.4024 16.3251 20.2921 16.0677 20.1042 15.8719L20.1061 15.87L18.6877 14.452L18.6783 14.4614C18.4804 14.3057 18.2358 14.2213 17.984 14.2221C17.7323 14.2229 17.4881 14.3087 17.2913 14.4657L17.2824 14.4567L17.1926 14.5465L16.5435 15.1956L16.4848 15.2543L16.4862 15.2557C11.992 19.8143 12.0104 27.1773 16.544 31.7109C16.5543 31.7212 16.567 31.7283 16.5778 31.7386L16.575 31.7414L17.3726 32.5395L17.382 32.5301C17.5939 32.6995 17.8602 32.7861 18.1312 32.7739C18.4022 32.7617 18.6596 32.6515 18.8554 32.4638L18.8569 32.4652L18.8705 32.4516L18.8728 32.4497L18.8747 32.4474L20.179 31.1431L20.1804 31.1422L20.1813 31.1413L20.2748 31.0477L20.2654 31.0383C20.4212 30.8406 20.5056 30.596 20.5048 30.3443C20.5041 30.0926 20.4182 29.8486 20.2612 29.6518Z" fill="#279AF1"/>
<path d="M14.797 35.116L14.8059 35.1071L14.7166 35.0178L14.7162 35.0173L14.7157 35.0169L14.0079 34.3095L13.9952 34.3222C13.9849 34.3114 13.9778 34.2987 13.9675 34.2879C8.01351 28.3335 7.99565 18.659 13.9106 12.6806L13.9181 12.6881L14.625 11.9812L14.6264 11.9803L14.6273 11.9789L14.7157 11.8905L14.7068 11.8816C14.8765 11.6697 14.9633 11.4033 14.9511 11.1322C14.9389 10.861 14.8285 10.6035 14.6405 10.4077L14.6424 10.4058L13.9684 9.73182L13.9679 9.73135L13.9675 9.73088L13.2244 8.98781L13.215 8.99768C13.0172 8.84193 12.7725 8.7576 12.5208 8.75837C12.269 8.75913 12.0249 8.84496 11.828 9.00191L11.8186 8.99251L11.0215 9.7901L11.0229 9.79151C3.51514 17.3632 3.533 29.6297 11.0798 37.1761C11.0906 37.1869 11.1033 37.1934 11.1141 37.2038L11.1108 37.2071L11.9084 38.0051L11.9178 37.9957C12.1298 38.1652 12.3962 38.2518 12.6673 38.2395C12.9384 38.2272 13.1959 38.1169 13.3917 37.929L13.3931 37.9304L13.4086 37.9149L14.7143 36.6088L14.7166 36.6069L14.7185 36.6045L14.8106 36.5124L14.8012 36.503C14.957 36.3052 15.0413 36.0606 15.0406 35.8088C15.0398 35.557 14.954 35.3129 14.797 35.116Z" fill="#279AF1"/>
</svg>
