<svg width="39" height="38" viewBox="0 0 39 38" fill="none" xmlns="http://www.w3.org/2000/svg">
<path d="M19.8437 3.05359C23.3531 3.05359 26.7188 4.44769 29.2003 6.92919C31.6818 9.4107 33.0759 12.7763 33.0759 16.2857C33.0759 21.8772 29.147 27.9707 21.3909 34.6316C20.9596 35.0021 20.4098 35.2055 19.8412 35.205C19.2727 35.2046 18.7232 35.0001 18.2925 34.6289L17.7795 34.1837C10.3668 27.6966 6.6116 21.7523 6.6116 16.2857C6.6116 12.7763 8.0057 9.4107 10.4872 6.92919C12.9687 4.44769 16.3344 3.05359 19.8437 3.05359ZM19.8437 11.1964C18.494 11.1964 17.1995 11.7326 16.2451 12.6871C15.2907 13.6415 14.7545 14.936 14.7545 16.2857C14.7545 17.6355 15.2907 18.93 16.2451 19.8844C17.1995 20.8388 18.494 21.375 19.8437 21.375C21.1935 21.375 22.488 20.8388 23.4424 19.8844C24.3968 18.93 24.933 17.6355 24.933 16.2857C24.933 14.936 24.3968 13.6415 23.4424 12.6871C22.488 11.7326 21.1935 11.1964 19.8437 11.1964Z" fill="#F24E1E"/>
</svg>
