<svg width="38" height="38" viewBox="0 0 38 38" fill="none" xmlns="http://www.w3.org/2000/svg">
<path d="M6.33332 31.6666H31.6667C33.4083 31.6666 34.8333 30.2416 34.8333 28.5C34.8333 26.7583 33.4083 25.3333 31.6667 25.3333H6.33332C4.59166 25.3333 3.16666 26.7583 3.16666 28.5C3.16666 30.2416 4.59166 31.6666 6.33332 31.6666ZM6.33332 26.9166H9.49999V30.0833H6.33332V26.9166ZM3.16666 9.49998C3.16666 11.2416 4.59166 12.6666 6.33332 12.6666H31.6667C33.4083 12.6666 34.8333 11.2416 34.8333 9.49998C34.8333 7.75831 33.4083 6.33331 31.6667 6.33331H6.33332C4.59166 6.33331 3.16666 7.75831 3.16666 9.49998ZM9.49999 11.0833H6.33332V7.91665H9.49999V11.0833ZM6.33332 22.1666H31.6667C33.4083 22.1666 34.8333 20.7416 34.8333 19C34.8333 17.2583 33.4083 15.8333 31.6667 15.8333H6.33332C4.59166 15.8333 3.16666 17.2583 3.16666 19C3.16666 20.7416 4.59166 22.1666 6.33332 22.1666ZM6.33332 17.4166H9.49999V20.5833H6.33332V17.4166Z" fill="black"/>
</svg>
