<svg width="47" height="47" viewBox="0 0 47 47" fill="none" xmlns="http://www.w3.org/2000/svg">
<path d="M23 5.5C32.6653 5.5 40.5 13.3348 40.5 23C40.5 32.6652 32.6653 40.5 23 40.5C13.3348 40.5 5.50003 32.6652 5.50003 23C5.50003 13.3348 13.3348 5.5 23 5.5ZM23 9C19.287 9 15.726 10.475 13.1005 13.1005C10.475 15.726 9.00003 19.287 9.00003 23C9.00003 26.713 10.475 30.274 13.1005 32.8995C15.726 35.525 19.287 37 23 37C26.7131 37 30.274 35.525 32.8995 32.8995C35.525 30.274 37 26.713 37 23C37 19.287 35.525 15.726 32.8995 13.1005C30.274 10.475 26.7131 9 23 9ZM23 12.5C23.4287 12.5001 23.8424 12.6574 24.1627 12.9423C24.483 13.2271 24.6876 13.6196 24.7378 14.0452L24.75 14.25V22.2755L29.4873 27.0128C29.8011 27.3277 29.9834 27.7503 29.9969 28.1947C30.0105 28.6391 29.8544 29.072 29.5603 29.4055C29.2663 29.739 28.8563 29.948 28.4137 29.9902C27.9711 30.0324 27.529 29.9045 27.1773 29.6325L27.0128 29.4872L21.7628 24.2372C21.4908 23.965 21.3161 23.6108 21.2658 23.2292L21.25 23V14.25C21.25 13.7859 21.4344 13.3408 21.7626 13.0126C22.0908 12.6844 22.5359 12.5 23 12.5Z" fill="#279AF1"/>
</svg>
