<svg width="26" height="36" viewBox="0 0 26 36" fill="none" xmlns="http://www.w3.org/2000/svg">
<path d="M5 15C3.67392 15 2.40215 14.4339 1.46447 13.4262C0.526784 12.4186 0 11.0519 0 9.62687C0 6.04478 5 0 5 0C5 0 10 6.04478 10 9.62687C10 11.0519 9.47322 12.4186 8.53553 13.4262C7.59785 14.4339 6.32608 15 5 15Z" fill="#2C77FF"/>
<path d="M8.5 36C7.04131 36 5.64236 35.3207 4.61091 34.1115C3.57946 32.9023 3 31.2623 3 29.5522C3 25.2537 8.5 18 8.5 18C8.5 18 14 25.2537 14 29.5522C14 31.2623 13.4205 32.9023 12.3891 34.1115C11.3576 35.3207 9.95869 36 8.5 36Z" fill="#2C77FF"/>
<path d="M19.5 23C17.7761 23 16.1228 22.2075 14.9038 20.7967C13.6848 19.386 13 17.4727 13 15.4776C13 10.4627 19.5 2 19.5 2C19.5 2 26 10.4627 26 15.4776C26 17.4727 25.3152 19.386 24.0962 20.7967C22.8772 22.2075 21.2239 23 19.5 23Z" fill="#2C77FF"/>
</svg>
