<svg width="21" height="21" viewBox="0 0 21 21" fill="none" xmlns="http://www.w3.org/2000/svg">
<path d="M9.28082 2V11.8312H11.7192V2H9.28082ZM4.4892 4.4892C2.95099 6.0274 2 8.15278 2 10.5C2 15.1944 5.80558 19 10.5 19C15.1944 19 19 15.1944 19 10.5C19 8.15278 18.049 6.0274 16.5108 4.4892L14.7988 6.20124C15.8989 7.30139 16.5793 8.82139 16.5793 10.5C16.5793 13.8572 13.8572 16.5793 10.5 16.5793C7.14277 16.5793 4.42071 13.8572 4.42071 10.5C4.42071 8.82139 5.10107 7.30139 6.20124 6.20124L4.4892 4.4892Z" fill="#545454"/>
</svg>
