<svg width="22" height="22" viewBox="0 0 22 22" fill="none" xmlns="http://www.w3.org/2000/svg">
<path d="M11.8103 2.32102C11.4931 1.72152 10.5068 1.72152 10.1896 2.32102L1.93965 17.9044C1.86538 18.044 1.82857 18.2006 1.83278 18.3587C1.837 18.5168 1.88211 18.6712 1.96371 18.8067C2.04532 18.9422 2.16064 19.0543 2.29843 19.132C2.43622 19.2097 2.59179 19.2503 2.74998 19.25H19.25C19.4081 19.2504 19.5635 19.2097 19.7012 19.1321C19.8389 19.0544 19.9542 18.9424 20.0357 18.807C20.1172 18.6715 20.1622 18.5173 20.1664 18.3592C20.1706 18.2012 20.1337 18.0448 20.0594 17.9053L11.8103 2.32102ZM11.9166 16.5H10.0833V14.6667H11.9166V16.5ZM10.0833 12.8334V8.25002H11.9166L11.9176 12.8334H10.0833Z" fill="#F24E1E"/>
</svg>
