<svg width="24" height="24" viewBox="0 0 24 24" fill="none" xmlns="http://www.w3.org/2000/svg">
<path d="M12 21C16.9706 21 21 16.9706 21 12C21 7.02944 16.9706 3 12 3C7.02944 3 3 7.02944 3 12C3 16.9706 7.02944 21 12 21Z" fill="#545454" fill-opacity="0.25" stroke="#545454" stroke-width="1.2"/>
<path d="M12 18.6C12.3314 18.6 12.6 18.3314 12.6 18C12.6 17.6686 12.3314 17.4 12 17.4C11.6687 17.4 11.4 17.6686 11.4 18C11.4 18.3314 11.6687 18.6 12 18.6Z" fill="#545454" stroke="#545454" stroke-width="0.2"/>
<path d="M12 16V15.143C12 14.429 12.357 13.762 12.951 13.366L13.55 12.966C13.9961 12.6685 14.3618 12.2655 14.6148 11.7928C14.8677 11.32 15 10.7922 15 10.256V10C15 9.20435 14.6839 8.44129 14.1213 7.87868C13.5587 7.31607 12.7956 7 12 7C11.2044 7 10.4413 7.31607 9.87868 7.87868C9.31607 8.44129 9 9.20435 9 10" stroke="#545454" stroke-width="1.2"/>
</svg>
