<svg width="520" height="153" viewBox="0 0 520 153" fill="none" xmlns="http://www.w3.org/2000/svg">
<g clip-path="url(#clip0_938_72)">
<mask id="mask0_938_72" style="mask-type:alpha" maskUnits="userSpaceOnUse" x="-4" y="2" width="162" height="131">
<path d="M152.056 88.8531C131.668 17.9194 105.213 20.9274 14.7717 117.353C8.16174 105.353 6.0429 100.427 3.07716 85.8531C2.01201 72.8531 1.78083 66.7798 5.111 56.3531C8.88464 42.0099 12.9897 36.0778 22.0847 25.9445C31.4501 16.7689 35.8429 14.2595 46.2962 8.85308C61.5191 3.17654 68.7165 1.81401 83.9222 2.35308C101.999 5.03005 111.032 8.0919 123.582 17.8531C133.274 25.7661 138.614 30.1482 144.937 43.3531C151.039 57.353 154.417 68.853 152.056 88.8531Z" fill="black"/>
</mask>
<g mask="url(#mask0_938_72)">
<path d="M-5.05811 83.353C37.6524 33.853 52.3977 26.353 15.2802 116.853C-21.8372 207.353 41.9928 31.2346 -5.05811 83.353Z" fill="#279AF1" stroke="#279AF1"/>
<path d="M25.9574 41.6181C64.3235 9.90972 57.6471 23.6543 50.8938 41.6386C50.2266 43.7756 49.374 46.1767 48.3301 48.8531C44.0899 61.8531 39.1778 78.8531 72.7361 60.8531C-2.43784 146.539 -7.0919 161.353 48.3301 48.8531C49.118 46.4374 50.0066 44.0014 50.8938 41.6386C57.1277 21.6726 47.1807 24.7564 25.9579 41.6177C10.6634 54.4314 3.46965 61.9822 2.56881 75.8531L-0.481959 64.3531C9.58962 55.4597 18.4744 47.5633 25.9574 41.6181Z" fill="#279AF1"/>
<path d="M-0.481959 64.3531C74.2615 -1.64688 56.2332 24.6231 48.3301 48.8531M-0.481959 64.3531L2.56881 75.8531C3.46965 61.9822 10.6634 54.4314 25.9579 41.6177M-0.481959 64.3531C9.58984 55.4595 18.4748 47.563 25.9579 41.6177M48.3301 48.8531C44.0899 61.8531 39.1778 78.8531 72.7361 60.8531C-2.43784 146.539 -7.0919 161.353 48.3301 48.8531ZM48.3301 48.8531C59.1278 21.1703 49.4522 22.9517 25.9579 41.6177" stroke="#279AF1"/>
</g>
<mask id="mask1_938_72" style="mask-type:alpha" maskUnits="userSpaceOnUse" x="1" y="1" width="153" height="151">
<path d="M152.775 76.4446C152.775 117.298 119.092 150.445 77.5066 150.445C35.9209 150.445 2.23779 117.298 2.23779 76.4446C2.23779 35.5913 35.9209 2.44458 77.5066 2.44458C119.092 2.44458 152.775 35.5913 152.775 76.4446Z" fill="#D9D9D9" stroke="black" stroke-width="2"/>
</mask>
<g mask="url(#mask1_938_72)">
<path d="M156.013 99.4123C139.914 77.967 98.7423 62.9377 18.9921 116.623C98.2475 63.2708 124.407 41.991 156.013 99.4123C159.327 103.827 161.579 108.514 162.886 112.929C160.553 108.011 158.269 103.511 156.013 99.4123Z" fill="#279AF1"/>
<path d="M-24.755 146.688C-9.01658 134.788 5.54263 124.849 18.9921 116.623M18.9921 116.623C115.16 51.8861 155.23 87.0668 162.886 112.929C127.871 39.1165 103.905 59.4624 18.9921 116.623Z" stroke="#279AF1" stroke-width="5" stroke-linecap="round"/>
<path d="M27.5534 125.674C62.8831 105.912 126.971 72.4773 152.643 115.088C126.78 133.61 133.642 69.9499 27.5534 125.674Z" fill="#279AF1"/>
<path d="M10.6637 115.088C-4.86825 142.803 5.65675 137.921 27.5534 125.674M155.81 115.088C154.831 112.882 153.774 116.965 152.643 115.088M27.5534 125.674C62.8831 105.912 126.971 72.4773 152.643 115.088M27.5534 125.674C133.642 69.9499 126.78 133.61 152.643 115.088" stroke="#279AF1" stroke-width="2"/>
<path d="M-21.1923 157.351C100.387 101.445 195.977 92.4448 121.742 139.945C112.464 145.881 106.896 149.681 103.801 151.9C98.3081 155.84 100.61 154.801 103.801 151.9C113.196 143.359 130.295 118.668 -21.1923 157.351Z" fill="#279AF1"/>
<path d="M-21.1923 157.351C100.387 101.445 195.977 92.4448 121.742 139.945C47.5075 187.445 210.731 98.1291 -21.1923 157.351Z" stroke="#279AF1"/>
<path d="M159.369 118.445C140.101 31.4203 115.206 6.9085 -2.32125 135.445C114.71 7.45086 135.707 11.5727 159.369 118.445Z" fill="#279AF1"/>
<path d="M159.369 118.445C158.696 114.229 160.047 122.394 159.369 118.445ZM159.369 118.445C140.101 31.4203 115.206 6.9085 -2.32125 135.445C114.71 7.45086 135.707 11.5727 159.369 118.445Z" stroke="#279AF1"/>
</g>
<path d="M152.275 76.4446C152.275 117.014 118.824 149.945 77.5066 149.945C36.1891 149.945 2.73779 117.014 2.73779 76.4446C2.73779 35.8753 36.1891 2.94458 77.5066 2.94458C118.824 2.94458 152.275 35.8753 152.275 76.4446Z" stroke="#279AF1" stroke-width="3"/>
</g>
<path d="M215.09 88.25H192.97L188.14 104H183.1L195.77 63.05C196.797 59.7367 197.893 57.45 199.06 56.19C200.273 54.8833 201.93 54.23 204.03 54.23C206.13 54.23 207.787 54.8833 209 56.19C210.213 57.45 211.333 59.7367 212.36 63.05L225.03 104H219.92L215.09 88.25ZM213.9 84.33L207.39 63.12C206.877 61.5333 206.387 60.4367 205.92 59.83C205.453 59.2233 204.823 58.92 204.03 58.92C203.283 58.92 202.677 59.2233 202.21 59.83C201.743 60.4367 201.253 61.5333 200.74 63.12L194.23 84.33H213.9ZM247.403 104.77C240.916 104.77 235.969 103.253 232.563 100.22C229.203 97.1867 227.523 92.7533 227.523 86.92V72.01C227.523 66.27 229.156 61.8833 232.423 58.85C235.736 55.77 240.496 54.23 246.703 54.23C250.763 54.23 254.239 54.8833 257.133 56.19C260.026 57.45 262.406 59.4333 264.273 62.14L260.703 64.73C259.069 62.5367 257.133 60.9267 254.893 59.9C252.699 58.8267 250.039 58.29 246.913 58.29C242.246 58.29 238.676 59.4567 236.203 61.79C233.776 64.1233 232.563 67.53 232.563 72.01V86.92C232.563 91.4467 233.799 94.8767 236.273 97.21C238.793 99.5433 242.479 100.71 247.333 100.71C250.553 100.71 253.283 100.173 255.523 99.1C257.763 98.0267 259.699 96.3467 261.333 94.06L264.903 96.79C262.803 99.59 260.376 101.62 257.623 102.88C254.869 104.14 251.463 104.77 247.403 104.77ZM291.001 104.77C284.795 104.77 280.035 103.253 276.721 100.22C273.408 97.14 271.751 92.7067 271.751 86.92V72.08C271.751 66.2933 273.408 61.8833 276.721 58.85C280.035 55.77 284.795 54.23 291.001 54.23C297.208 54.23 301.968 55.77 305.281 58.85C308.595 61.8833 310.251 66.2933 310.251 72.08V86.92C310.251 92.7067 308.595 97.14 305.281 100.22C301.968 103.253 297.208 104.77 291.001 104.77ZM291.001 100.71C295.575 100.71 299.075 99.52 301.501 97.14C303.975 94.76 305.211 91.3533 305.211 86.92V72.08C305.211 67.6467 303.975 64.24 301.501 61.86C299.075 59.48 295.575 58.29 291.001 58.29C286.428 58.29 282.905 59.48 280.431 61.86C278.005 64.24 276.791 67.6467 276.791 72.08V86.92C276.791 91.3533 278.005 94.76 280.431 97.14C282.905 99.52 286.428 100.71 291.001 100.71ZM338.229 104.77C332.443 104.77 327.893 103.533 324.579 101.06C321.313 98.54 319.679 95.0867 319.679 90.7V55H324.719V90.7C324.719 93.8267 325.909 96.2767 328.289 98.05C330.669 99.8233 333.983 100.71 338.229 100.71C342.476 100.71 345.789 99.8233 348.169 98.05C350.549 96.2767 351.739 93.8267 351.739 90.7V55H356.779V90.7C356.779 95.0867 355.123 98.54 351.809 101.06C348.543 103.533 344.016 104.77 338.229 104.77ZM383.094 104.77C378.8 104.77 375.254 104.14 372.454 102.88C369.7 101.573 367.157 99.38 364.824 96.3L368.254 93.29C370.26 95.9967 372.337 97.91 374.484 99.03C376.677 100.15 379.454 100.71 382.814 100.71C387.2 100.71 390.584 99.87 392.964 98.19C395.39 96.51 396.604 94.1533 396.604 91.12C396.604 89.2067 396.16 87.69 395.274 86.57C394.387 85.45 392.824 84.4933 390.584 83.7C388.344 82.86 385.03 81.9967 380.644 81.11C375.837 80.1767 372.267 78.6367 369.934 76.49C367.647 74.3433 366.504 71.4733 366.504 67.88C366.504 63.6333 368.02 60.2967 371.054 57.87C374.134 55.4433 378.357 54.23 383.724 54.23C387.55 54.23 390.864 54.9067 393.664 56.26C396.464 57.5667 398.634 59.5033 400.174 62.07L396.744 64.87C395.297 62.7233 393.454 61.09 391.214 59.97C389.02 58.85 386.477 58.29 383.584 58.29C379.897 58.29 376.957 59.13 374.764 60.81C372.617 62.49 371.544 64.7533 371.544 67.6C371.544 70.12 372.5 72.1267 374.414 73.62C376.327 75.0667 379.477 76.2333 383.864 77.12C388.484 78.0533 392.054 79.1033 394.574 80.27C397.14 81.4367 398.96 82.86 400.034 84.54C401.107 86.1733 401.644 88.32 401.644 90.98C401.644 95.46 400.057 98.89 396.884 101.27C393.71 103.603 389.114 104.77 383.094 104.77ZM425.455 104C419.995 104 415.935 102.81 413.275 100.43C410.662 98.0033 409.355 94.3167 409.355 89.37V69.63C409.355 64.6833 410.662 61.02 413.275 58.64C415.935 56.2133 419.995 55 425.455 55H442.325V59.06H425.455C421.675 59.06 418.875 59.9233 417.055 61.65C415.282 63.3767 414.395 66.0367 414.395 69.63V77.47H438.755V81.53H414.395V89.37C414.395 92.9633 415.282 95.6233 417.055 97.35C418.875 99.0767 421.675 99.94 425.455 99.94H442.745V104H425.455ZM479.983 88.25H457.863L453.033 104H447.993L460.663 63.05C461.689 59.7367 462.786 57.45 463.953 56.19C465.166 54.8833 466.823 54.23 468.923 54.23C471.023 54.23 472.679 54.8833 473.893 56.19C475.106 57.45 476.226 59.7367 477.253 63.05L489.923 104H484.813L479.983 88.25ZM478.793 84.33L472.283 63.12C471.769 61.5333 471.279 60.4367 470.813 59.83C470.346 59.2233 469.716 58.92 468.923 58.92C468.176 58.92 467.569 59.2233 467.103 59.83C466.636 60.4367 466.146 61.5333 465.633 63.12L459.123 84.33H478.793Z" fill="#279AF1"/>
<defs>
<clipPath id="clip0_938_72">
<rect width="155" height="153" fill="white"/>
</clipPath>
</defs>
</svg>
