<svg width="155" height="153" viewBox="0 0 155 153" fill="none" xmlns="http://www.w3.org/2000/svg">
<g clip-path="url(#clip0_282_8)">
<mask id="mask0_282_8" style="mask-type:alpha" maskUnits="userSpaceOnUse" x="2" y="2" width="151" height="116">
<path d="M152.056 88.8531C131.668 17.9194 105.213 20.9274 14.7716 117.353C8.16162 105.353 6.04278 100.427 3.07704 85.8531C2.01188 72.8531 1.78071 66.7798 5.11088 56.3531C8.88451 42.0099 12.9896 36.0778 22.0845 25.9445C31.45 16.7689 35.8428 14.2595 46.2961 8.85308C61.519 3.17654 68.7164 1.81401 83.922 2.35308C101.999 5.03005 111.032 8.0919 123.582 17.8531C133.274 25.7661 138.614 30.1482 144.937 43.3531C151.038 57.353 154.417 68.853 152.056 88.8531Z" fill="black"/>
</mask>
<g mask="url(#mask0_282_8)">
<path d="M-5.05823 83.3531C37.6523 33.853 52.3976 26.353 15.2801 116.853C-21.8374 207.353 41.9927 31.2347 -5.05823 83.3531Z" fill="#279AF1" stroke="#279AF1"/>
<path d="M25.9573 41.618C64.3233 9.90966 57.6469 23.6542 50.8937 41.6386C50.2265 43.7756 49.3739 46.1766 48.3299 48.8531C44.0897 61.8531 39.1777 78.8531 72.7359 60.8531C-2.43799 146.539 -7.09205 161.353 48.3299 48.8531C49.1179 46.4374 50.0064 44.0014 50.8937 41.6386C57.1275 21.6725 47.1805 24.7563 25.9578 41.6176C10.6633 54.4313 3.4695 61.9822 2.56865 75.8531L-0.482111 64.3531C9.58947 55.4597 18.4743 47.5632 25.9573 41.618Z" fill="#279AF1"/>
<path d="M-0.482111 64.3531C74.2613 -1.64694 56.233 24.623 48.3299 48.8531M-0.482111 64.3531L2.56865 75.8531C3.4695 61.9822 10.6633 54.4313 25.9578 41.6176M-0.482111 64.3531C9.58969 55.4595 18.4746 47.5629 25.9578 41.6176M48.3299 48.8531C44.0897 61.8531 39.1777 78.8531 72.7359 60.8531C-2.43799 146.539 -7.09205 161.353 48.3299 48.8531ZM48.3299 48.8531C59.1276 21.1703 49.452 22.9516 25.9578 41.6176" stroke="#279AF1"/>
</g>
<mask id="mask1_282_8" style="mask-type:alpha" maskUnits="userSpaceOnUse" x="1" y="1" width="153" height="151">
<path d="M152.775 76.4446C152.775 117.298 119.092 150.445 77.5067 150.445C35.921 150.445 2.23785 117.298 2.23785 76.4446C2.23785 35.5913 35.921 2.44458 77.5067 2.44458C119.092 2.44458 152.775 35.5913 152.775 76.4446Z" fill="black" stroke="black" stroke-width="2"/>
</mask>
<g mask="url(#mask1_282_8)">
<path d="M156.013 99.4121C139.914 77.9668 98.7422 62.9375 18.992 116.623C98.2474 63.2706 124.407 41.9908 156.013 99.4121C159.327 103.827 161.579 108.513 162.886 112.928C160.553 108.011 158.269 103.511 156.013 99.4121Z" fill="#279AF1"/>
<path d="M-24.7551 146.688C-9.01667 134.788 5.54254 124.848 18.992 116.623M18.992 116.623C115.159 51.886 155.23 87.0666 162.886 112.928C127.871 39.1163 103.905 59.4623 18.992 116.623Z" stroke="#279AF1" stroke-width="5" stroke-linecap="round"/>
<path d="M27.5531 125.674C62.8828 105.912 126.97 72.4773 152.642 115.088C126.78 133.61 133.642 69.9499 27.5531 125.674Z" fill="#279AF1"/>
<path d="M10.6634 115.088C-4.86855 142.803 5.65644 137.921 27.5531 125.674M155.809 115.088C154.831 112.882 153.773 116.965 152.642 115.088M27.5531 125.674C62.8828 105.912 126.97 72.4773 152.642 115.088M27.5531 125.674C133.642 69.9499 126.78 133.61 152.642 115.088" stroke="#279AF1" stroke-width="2"/>
<path d="M-21.1922 157.351C100.387 101.445 195.978 92.4447 121.743 139.945C112.464 145.881 106.896 149.681 103.801 151.9C98.3082 155.84 100.61 154.801 103.801 151.9C113.196 143.358 130.295 118.668 -21.1922 157.351Z" fill="#279AF1" stroke="#279AF1"/>
<path d="M159.368 118.445C140.101 31.4203 115.206 6.90843 -2.32137 135.445C114.71 7.4508 135.707 11.5726 159.368 118.445Z" fill="#279AF1"/>
<path d="M159.368 118.445C158.695 114.229 160.046 122.394 159.368 118.445ZM159.368 118.445C140.101 31.4203 115.206 6.90843 -2.32138 135.445C114.71 7.4508 135.707 11.5726 159.368 118.445Z" stroke="#279AF1"/>
</g>
<path d="M152.275 76.4446C152.275 117.014 118.824 149.945 77.5067 149.945C36.1892 149.945 2.73785 117.014 2.73785 76.4446C2.73785 35.8753 36.1892 2.94458 77.5067 2.94458C118.824 2.94458 152.275 35.8753 152.275 76.4446Z" stroke="#279AF1" stroke-width="3"/>
</g>
<defs>
<clipPath id="clip0_282_8">
<rect width="155" height="153" fill="white"/>
</clipPath>
</defs>
</svg>
