<svg width="406" height="108" viewBox="0 0 406 108" fill="none" xmlns="http://www.w3.org/2000/svg">
<g clip-path="url(#clip0_938_72)">
<mask id="mask0_938_72" style="mask-type:alpha" maskUnits="userSpaceOnUse" x="-3" y="1" width="115" height="93">
<path d="M107.334 62.7199C92.9426 12.6491 74.2682 14.7724 10.4272 82.8376C5.76137 74.367 4.26571 70.8897 2.17225 60.6023C1.42037 51.4258 1.2572 47.1387 3.6079 39.7787C6.27165 29.6541 9.16933 25.4668 15.5893 18.3139C22.2002 11.837 25.301 10.0656 32.6798 6.24932C43.4254 2.24235 48.5059 1.28056 59.2393 1.66108C71.9994 3.55071 78.3757 5.71201 87.2345 12.6023C94.0757 18.1879 97.8452 21.2812 102.309 30.6022C106.616 40.4846 109 48.6022 107.334 62.7199Z" fill="black"/>
</mask>
<g mask="url(#mask0_938_72)">
<path d="M-3.57031 58.8375C26.5783 23.8963 36.9867 18.6022 10.7862 82.4845C-15.4144 146.367 29.6421 22.048 -3.57031 58.8375Z" fill="#279AF1" stroke="#279AF1" stroke-width="0.705882"/>
<path d="M18.3231 29.3772C45.4046 6.99515 40.6919 16.6971 35.9249 29.3919C35.4539 30.9004 34.8521 32.5953 34.1152 34.4845C31.1221 43.661 27.6548 55.661 51.343 42.9551C-1.72097 103.439 -5.00619 113.896 34.1152 34.4845C34.6714 32.7793 35.2986 31.0598 35.9249 29.3919C40.3253 15.2983 33.3039 17.4751 18.3231 29.3772C7.52698 38.4221 2.44902 43.7521 1.81313 53.5434L-0.34035 45.4257C6.76915 39.1479 13.0409 33.5738 18.3231 29.3772Z" fill="#279AF1"/>
<path d="M-0.34035 45.4257C52.4197 -1.16253 39.6939 17.381 34.1152 34.4845M-0.34035 45.4257L1.81313 53.5434C2.44902 43.7521 7.52698 38.4221 18.3231 29.3772M-0.34035 45.4257C6.76915 39.1479 13.0409 33.5738 18.3231 29.3772M34.1152 34.4845C31.1221 43.661 27.6548 55.661 51.343 42.9551C-1.72097 103.439 -5.00619 113.896 34.1152 34.4845ZM34.1152 34.4845C41.7371 14.9437 34.9073 16.2012 18.3231 29.3772" stroke="#279AF1" stroke-width="0.705882"/>
</g>
<mask id="mask1_938_72" style="mask-type:alpha" maskUnits="userSpaceOnUse" x="0" y="1" width="109" height="106">
<path d="M107.842 53.961C107.842 82.7986 84.0654 106.196 54.7108 106.196C25.3562 106.196 1.57991 82.7986 1.57991 53.961C1.57991 25.1233 25.3562 1.72566 54.7108 1.72566C84.0654 1.72566 107.842 25.1233 107.842 53.961Z" fill="#D9D9D9" stroke="black" stroke-width="1.41176"/>
</mask>
<g mask="url(#mask1_938_72)">
<path d="M110.127 70.1733C98.7628 55.0355 69.7005 44.4265 13.4063 82.322C69.3512 44.6617 87.8167 29.6407 110.127 70.1733C112.466 73.2896 114.056 76.5978 114.978 79.7142C113.332 76.2429 111.72 73.0666 110.127 70.1733Z" fill="#279AF1"/>
<path d="M-17.4741 103.545C-6.36459 95.1443 3.9125 88.1284 13.4063 82.322M13.4063 82.322C81.2891 36.6254 109.574 61.4589 114.978 79.7142C90.2619 27.6116 73.3446 41.9734 13.4063 82.322Z" stroke="#279AF1" stroke-width="3.52941" stroke-linecap="round"/>
<path d="M19.4499 88.7108C44.3885 74.7616 89.6267 51.1604 107.748 81.2387C89.4925 94.313 94.3358 49.3764 19.4499 88.7108Z" fill="#279AF1"/>
<path d="M7.52775 81.2386C-3.43598 100.802 3.99343 97.3563 19.4499 88.7108M109.984 81.2386C109.293 79.6811 108.547 82.5638 107.748 81.2387M19.4499 88.7108C44.3885 74.7616 89.6267 51.1604 107.748 81.2387M19.4499 88.7108C94.3358 49.3764 89.4925 94.313 107.748 81.2387" stroke="#279AF1" stroke-width="1.41176"/>
<path d="M-14.9585 111.071C70.8623 71.608 138.338 65.2551 85.9366 98.7845C79.3874 102.975 75.4565 105.657 73.272 107.224C69.3948 110.005 71.0198 109.272 73.272 107.224C79.9037 101.194 91.9739 83.7658 -14.9585 111.071Z" fill="#279AF1"/>
<path d="M-14.9585 111.071C70.8623 71.608 138.338 65.2551 85.9366 98.7845C33.5355 132.314 148.752 69.2675 -14.9585 111.071Z" stroke="#279AF1" stroke-width="0.705882"/>
<path d="M112.496 83.608C98.8959 22.1791 81.3228 4.87663 -1.6377 95.608C80.9728 5.25947 95.794 8.169 112.496 83.608Z" fill="#279AF1"/>
<path d="M112.496 83.608C112.021 80.6321 112.975 86.3959 112.496 83.608ZM112.496 83.608C98.8959 22.1791 81.3228 4.87663 -1.63771 95.608C80.9728 5.25947 95.794 8.169 112.496 83.608Z" stroke="#279AF1" stroke-width="0.705882"/>
</g>
<path d="M107.488 53.9607C107.488 82.5979 83.8756 105.843 54.7103 105.843C25.545 105.843 1.93236 82.5979 1.93236 53.9607C1.93236 25.3236 25.545 2.07835 54.7103 2.07835C83.8756 2.07835 107.488 25.3236 107.488 53.9607Z" stroke="#279AF1" stroke-width="2.11765"/>
</g>
<path d="M158.194 65.05H138.602L134.324 79H129.86L141.082 42.73C141.991 39.7953 142.963 37.77 143.996 36.654C145.071 35.4967 146.538 34.918 148.398 34.918C150.258 34.918 151.725 35.4967 152.8 36.654C153.875 37.77 154.867 39.7953 155.776 42.73L166.998 79H162.472L158.194 65.05ZM157.14 61.578L151.374 42.792C150.919 41.3867 150.485 40.4153 150.072 39.878C149.659 39.3407 149.101 39.072 148.398 39.072C147.737 39.072 147.199 39.3407 146.786 39.878C146.373 40.4153 145.939 41.3867 145.484 42.792L139.718 61.578H157.14ZM186.814 79.682C181.068 79.682 176.687 78.3387 173.67 75.652C170.694 72.9653 169.206 69.0387 169.206 63.872V50.666C169.206 45.582 170.652 41.6967 173.546 39.01C176.48 36.282 180.696 34.918 186.194 34.918C189.79 34.918 192.869 35.4967 195.432 36.654C197.994 37.77 200.102 39.5267 201.756 41.924L198.594 44.218C197.147 42.2753 195.432 40.8493 193.448 39.94C191.505 38.9893 189.149 38.514 186.38 38.514C182.246 38.514 179.084 39.5473 176.894 41.614C174.744 43.6807 173.67 46.698 173.67 50.666V63.872C173.67 67.8813 174.765 70.9193 176.956 72.986C179.188 75.0527 182.453 76.086 186.752 76.086C189.604 76.086 192.022 75.6107 194.006 74.66C195.99 73.7093 197.705 72.2213 199.152 70.196L202.314 72.614C200.454 75.094 198.304 76.892 195.866 78.008C193.427 79.124 190.41 79.682 186.814 79.682ZM225.43 79.682C219.932 79.682 215.716 78.3387 212.782 75.652C209.847 72.924 208.38 68.9973 208.38 63.872V50.728C208.38 45.6027 209.847 41.6967 212.782 39.01C215.716 36.282 219.932 34.918 225.43 34.918C230.927 34.918 235.143 36.282 238.078 39.01C241.012 41.6967 242.48 45.6027 242.48 50.728V63.872C242.48 68.9973 241.012 72.924 238.078 75.652C235.143 78.3387 230.927 79.682 225.43 79.682ZM225.43 76.086C229.48 76.086 232.58 75.032 234.73 72.924C236.92 70.816 238.016 67.7987 238.016 63.872V50.728C238.016 46.8013 236.92 43.784 234.73 41.676C232.58 39.568 229.48 38.514 225.43 38.514C221.379 38.514 218.258 39.568 216.068 41.676C213.918 43.784 212.844 46.8013 212.844 50.728V63.872C212.844 67.7987 213.918 70.816 216.068 72.924C218.258 75.032 221.379 76.086 225.43 76.086ZM267.26 79.682C262.135 79.682 258.105 78.5867 255.17 76.396C252.277 74.164 250.83 71.1053 250.83 67.22V35.6H255.294V67.22C255.294 69.9893 256.348 72.1593 258.456 73.73C260.564 75.3007 263.499 76.086 267.26 76.086C271.022 76.086 273.956 75.3007 276.064 73.73C278.172 72.1593 279.226 69.9893 279.226 67.22V35.6H283.69V67.22C283.69 71.1053 282.223 74.164 279.288 76.396C276.395 78.5867 272.386 79.682 267.26 79.682ZM306.997 79.682C303.195 79.682 300.053 79.124 297.573 78.008C295.135 76.8507 292.882 74.908 290.815 72.18L293.853 69.514C295.631 71.9113 297.47 73.606 299.371 74.598C301.314 75.59 303.773 76.086 306.749 76.086C310.635 76.086 313.631 75.342 315.739 73.854C317.889 72.366 318.963 70.2787 318.963 67.592C318.963 65.8973 318.571 64.554 317.785 63.562C317 62.57 315.615 61.7227 313.631 61.02C311.647 60.276 308.713 59.5113 304.827 58.726C300.57 57.8993 297.408 56.5353 295.341 54.634C293.316 52.7327 292.303 50.1907 292.303 47.008C292.303 43.2467 293.647 40.2913 296.333 38.142C299.061 35.9927 302.802 34.918 307.555 34.918C310.945 34.918 313.879 35.5173 316.359 36.716C318.839 37.8733 320.761 39.5887 322.125 41.862L319.087 44.342C317.806 42.4407 316.173 40.994 314.189 40.002C312.247 39.01 309.994 38.514 307.431 38.514C304.166 38.514 301.562 39.258 299.619 40.746C297.718 42.234 296.767 44.2387 296.767 46.76C296.767 48.992 297.615 50.7693 299.309 52.092C301.004 53.3733 303.794 54.4067 307.679 55.192C311.771 56.0187 314.933 56.9487 317.165 57.982C319.439 59.0153 321.051 60.276 322.001 61.764C322.952 63.2107 323.427 65.112 323.427 67.468C323.427 71.436 322.022 74.474 319.211 76.582C316.401 78.6487 312.329 79.682 306.997 79.682ZM344.518 79C339.682 79 336.086 77.946 333.73 75.838C331.415 73.6887 330.258 70.4233 330.258 66.042V48.558C330.258 44.1767 331.415 40.932 333.73 38.824C336.086 36.6747 339.682 35.6 344.518 35.6H359.46V39.196H344.518C341.17 39.196 338.69 39.9607 337.078 41.49C335.507 43.0193 334.722 45.3753 334.722 48.558V55.502H356.298V59.098H334.722V66.042C334.722 69.2247 335.507 71.5807 337.078 73.11C338.69 74.6393 341.17 75.404 344.518 75.404H359.832V79H344.518ZM392.813 65.05H373.221L368.943 79H364.479L375.701 42.73C376.61 39.7953 377.582 37.77 378.615 36.654C379.69 35.4967 381.157 34.918 383.017 34.918C384.877 34.918 386.344 35.4967 387.419 36.654C388.494 37.77 389.486 39.7953 390.395 42.73L401.617 79H397.091L392.813 65.05ZM391.759 61.578L385.993 42.792C385.538 41.3867 385.104 40.4153 384.691 39.878C384.278 39.3407 383.72 39.072 383.017 39.072C382.356 39.072 381.818 39.3407 381.405 39.878C380.992 40.4153 380.558 41.3867 380.103 42.792L374.337 61.578H391.759Z" fill="#279AF1"/>
<defs>
<clipPath id="clip0_938_72">
<rect width="109.412" height="108" fill="white"/>
</clipPath>
</defs>
</svg>
