<svg xmlns="http://www.w3.org/2000/svg" width="235.775" height="48.345" viewBox="0 0 235.775 48.345">
  <g id="Group_2424" data-name="Group 2424" transform="translate(381.039 20.922)">
    <g id="Group_2428" data-name="Group 2428" transform="translate(-381.039 -20.922)">
      <g id="Group_2425" data-name="Group 2425" transform="translate(56.334 15.254)">
        <g id="Group_2424-2" data-name="Group 2424">
          <path id="Path_2573" data-name="Path 2573" d="M194.03,75.271q-2.175-2.175-2.176-6.661,0-4.7,2.149-6.849t6.473-2.149q4.3,0,6.459,2.148T209.1,68.61q0,4.486-2.176,6.661t-6.446,2.176Q196.206,77.447,194.03,75.271Zm9.629-2.753a6.194,6.194,0,0,0,1.007-3.908,6.5,6.5,0,0,0-.994-4.083,4.865,4.865,0,0,0-6.419,0,6.493,6.493,0,0,0-.994,4.083,6.191,6.191,0,0,0,1.007,3.908,4.714,4.714,0,0,0,6.392,0Z" transform="translate(-191.854 -59.61)" fill="#132e79"/>
          <path id="Path_2574" data-name="Path 2574" d="M236.192,75.136a8.552,8.552,0,0,1-2.4-6.473q0-4.378,2.336-6.715t6.93-2.337a15.369,15.369,0,0,1,2.753.228,16.794,16.794,0,0,1,2.485.658v3.787a12.725,12.725,0,0,0-4.915-.967,5.269,5.269,0,0,0-3.935,1.289,5.655,5.655,0,0,0-1.249,4.056,5.118,5.118,0,0,0,1.3,3.854,5.493,5.493,0,0,0,3.935,1.249,12.7,12.7,0,0,0,4.888-.94V76.64a16.144,16.144,0,0,1-5.238.806Q238.6,77.446,236.192,75.136Z" transform="translate(-215.416 -59.61)" fill="#132e79"/>
          <path id="Path_2575" data-name="Path 2575" d="M273.207,60.224h12.758v3.33h-8.434v3.626h7.44v3.384h-7.44v3.626h8.434v3.33H273.207Z" transform="translate(-237.566 -59.954)" fill="#132e79"/>
          <path id="Path_2576" data-name="Path 2576" d="M312.429,60.223H317.1l6.608,17.3H319.2L317.639,73.6h-5.775l-1.531,3.921h-4.512Zm4.62,10.18-2.31-6.017L312.456,70.4Z" transform="translate(-255.892 -59.954)" fill="#132e79"/>
          <path id="Path_2577" data-name="Path 2577" d="M351.678,60.223h3.706l7.36,10.341V60.223H367.1v17.3h-3.733L356,67.207V77.521h-4.324Z" transform="translate(-281.658 -59.954)" fill="#132e79"/>
          <path id="Path_2578" data-name="Path 2578" d="M406.056,76.693V75.377a14.211,14.211,0,0,0,4.915.806,7.26,7.26,0,0,0,3.841-.806,2.859,2.859,0,0,0,1.262-2.605,3.036,3.036,0,0,0-.5-1.8,3.671,3.671,0,0,0-1.585-1.168,17.425,17.425,0,0,0-3.049-.9,9.277,9.277,0,0,1-4.123-1.719,3.738,3.738,0,0,1-1.2-2.928,4.114,4.114,0,0,1,1.558-3.411,7.379,7.379,0,0,1,4.647-1.235,16.752,16.752,0,0,1,2.619.2,14.082,14.082,0,0,1,2.028.443v1.316a13.22,13.22,0,0,0-4.351-.672,7.145,7.145,0,0,0-3.773.806,2.8,2.8,0,0,0-1.276,2.552,2.7,2.7,0,0,0,.443,1.612,3.424,3.424,0,0,0,1.464,1.061,18.2,18.2,0,0,0,3.008.9,9.6,9.6,0,0,1,4.311,1.88,4.5,4.5,0,0,1-.416,6.554,8.168,8.168,0,0,1-4.807,1.182A13.949,13.949,0,0,1,406.056,76.693Z" transform="translate(-311.971 -59.609)" fill="#007da6"/>
          <path id="Path_2579" data-name="Path 2579" d="M441.436,75.215q-1.907-2.229-1.907-6.608,0-4.647,1.88-6.823t5.882-2.176q4,0,5.882,2.176t1.88,6.823q0,4.378-1.907,6.608t-5.855,2.23Q443.343,77.444,441.436,75.215Zm10.6-.873q1.544-1.839,1.544-5.734a12.263,12.263,0,0,0-.685-4.513,4.646,4.646,0,0,0-2.055-2.444,7.333,7.333,0,0,0-3.545-.752,7.414,7.414,0,0,0-3.559.752,4.629,4.629,0,0,0-2.068,2.444,12.265,12.265,0,0,0-.685,4.513q0,3.895,1.545,5.735a7.062,7.062,0,0,0,9.508,0Z" transform="translate(-331.021 -59.609)" fill="#007da6"/>
          <path id="Path_2580" data-name="Path 2580" d="M482.933,60.222h1.4l10.717,15.1v-15.1h1.477v17.3H495.1L484.41,62.452V77.52h-1.477Z" transform="translate(-355.409 -59.953)" fill="#007da6"/>
          <path id="Path_2581" data-name="Path 2581" d="M524.375,60.222h1.477v17.3h-1.477Z" transform="translate(-378.695 -59.953)" fill="#007da6"/>
          <path id="Path_2582" data-name="Path 2582" d="M538.931,75.187a9.016,9.016,0,0,1-1.988-6.178,11.17,11.17,0,0,1,1.893-6.93q1.894-2.471,6.03-2.471a14.758,14.758,0,0,1,4.942.779V61.7A13.752,13.752,0,0,0,545,60.9q-3.572,0-5.09,2.082a10.141,10.141,0,0,0-1.518,6.03q0,7.172,6.688,7.171a16.617,16.617,0,0,0,2.485-.188,12.231,12.231,0,0,0,2.243-.537v1.316a16.486,16.486,0,0,1-4.915.672Q540.918,77.443,538.931,75.187Z" transform="translate(-385.757 -59.608)" fill="#007da6"/>
          <path id="Path_2583" data-name="Path 2583" d="M574.707,76.691V75.375a14.223,14.223,0,0,0,4.916.806,7.263,7.263,0,0,0,3.84-.806,2.859,2.859,0,0,0,1.263-2.605,3.034,3.034,0,0,0-.5-1.8,3.664,3.664,0,0,0-1.584-1.168,17.447,17.447,0,0,0-3.049-.9,9.276,9.276,0,0,1-4.123-1.719,3.737,3.737,0,0,1-1.2-2.927,4.114,4.114,0,0,1,1.558-3.412,7.38,7.38,0,0,1,4.647-1.235,16.745,16.745,0,0,1,2.619.2,14.041,14.041,0,0,1,2.028.443v1.316a13.222,13.222,0,0,0-4.351-.671A7.144,7.144,0,0,0,577,61.7a2.8,2.8,0,0,0-1.276,2.552,2.7,2.7,0,0,0,.443,1.612,3.43,3.43,0,0,0,1.464,1.061,18.3,18.3,0,0,0,3.008.9,9.594,9.594,0,0,1,4.311,1.88,4.5,4.5,0,0,1-.417,6.554,8.175,8.175,0,0,1-4.807,1.182A13.938,13.938,0,0,1,574.707,76.691Z" transform="translate(-406.735 -59.608)" fill="#007da6"/>
        </g>
      </g>
      <g id="Group_2427" data-name="Group 2427">
        <g id="Group_2426" data-name="Group 2426">
          <path id="Path_2584" data-name="Path 2584" d="M87.35,37.794a11.114,11.114,0,0,1,11.057,10A1.25,1.25,0,0,0,99.658,48.9h10.5a1.278,1.278,0,0,0,1.266-1.363,24.117,24.117,0,0,0-48.157,0A1.278,1.278,0,0,0,64.537,48.9h10.5a1.25,1.25,0,0,0,1.251-1.115A11.114,11.114,0,0,1,87.35,37.794Z" transform="translate(-63.269 -24.79)" fill="#132e79"/>
        </g>
        <rect id="Rectangle_5878" data-name="Rectangle 5878" width="13.362" height="1.562" rx="0.781" transform="translate(34.741 26.042)" fill="#132e79"/>
        <rect id="Rectangle_5879" data-name="Rectangle 5879" width="13.351" height="1.562" rx="0.781" transform="translate(0.021 26.042)" fill="#204799"/>
        <rect id="Rectangle_5880" data-name="Rectangle 5880" width="2.41" height="1.562" rx="0.781" transform="translate(44.466 29.499)" fill="#de5a81"/>
        <rect id="Rectangle_5881" data-name="Rectangle 5881" width="13.552" height="1.562" rx="0.781" transform="translate(1.249 29.499)" fill="#132e79"/>
        <rect id="Rectangle_5882" data-name="Rectangle 5882" width="8.788" height="1.562" rx="0.781" transform="translate(2.477 32.955)" fill="#534092"/>
        <rect id="Rectangle_5883" data-name="Rectangle 5883" width="16.607" height="1.562" rx="0.781" transform="translate(29.041 32.955)" fill="#007da6"/>
        <rect id="Rectangle_5884" data-name="Rectangle 5884" width="29.057" height="1.562" rx="0.781" transform="translate(5.132 36.412)" fill="#132e79"/>
        <rect id="Rectangle_5885" data-name="Rectangle 5885" width="23.725" height="1.562" rx="0.781" transform="translate(16.173 39.869)" fill="#204799"/>
        <rect id="Rectangle_5886" data-name="Rectangle 5886" width="7.073" height="1.562" rx="0.781" transform="translate(20.525 46.783)" fill="#de5a81"/>
        <rect id="Rectangle_5887" data-name="Rectangle 5887" width="6.752" height="1.562" rx="0.781" transform="translate(36.269 36.412)" fill="#534092"/>
        <rect id="Rectangle_5888" data-name="Rectangle 5888" width="5.886" height="1.562" rx="0.781" transform="translate(8.226 39.869)" fill="#9e4f98"/>
        <rect id="Rectangle_5889" data-name="Rectangle 5889" width="9.102" height="1.562" rx="0.781" transform="translate(33.313 29.499)" fill="#204799"/>
        <rect id="Rectangle_5890" data-name="Rectangle 5890" width="5.749" height="1.562" rx="0.781" transform="translate(13.324 32.955)" fill="#204799"/>
        <rect id="Rectangle_5891" data-name="Rectangle 5891" width="21.95" height="1.562" rx="0.781" transform="translate(13.165 43.326)" fill="#132e79"/>
      </g>
    </g>
  </g>
</svg>
